<?xml version="1.0" encoding="utf-8"?>
<!-- Generator: Adobe Illustrator 25.2.1, SVG Export Plug-In . SVG Version: 6.00 Build 0)  -->
<svg version="1.1" id="Layer_1" xmlns="http://www.w3.org/2000/svg" xmlns:xlink="http://www.w3.org/1999/xlink" x="0px" y="0px"
	 viewBox="0 0 288 148.8" style="enable-background:new 0 0 288 148.8;" xml:space="preserve">
<style type="text/css">
	.st0{fill:none;stroke:#111111;stroke-width:3;stroke-linecap:round;stroke-linejoin:round;stroke-miterlimit:10;}
	.st1{fill:#111111;}
	.st2{opacity:0;fill:#FFFFFF;}
</style>
<g>
	<g>
		<g>
			<g>
				<line class="st0" x1="103.7" y1="33.06" x2="103.7" y2="62.08"/>
				<path class="st0" d="M129.51,46.11c10.87,0,20.17-3.4,23.97-8.21c1.18-1.5,1.84-3.13,1.84-4.84c0-7.21-11.56-13.05-25.81-13.05
					s-25.81,5.84-25.81,13.05c0,1.71,0.66,3.34,1.84,4.84C109.34,42.71,118.64,46.11,129.51,46.11z"/>
				<line class="st0" x1="155.32" y1="33.06" x2="155.32" y2="44.24"/>
				<path class="st0" d="M103.7,42.73c0,1.71,0.66,3.34,1.84,4.84c3.8,4.81,13.1,8.21,23.97,8.21c5.07,0,9.78-0.75,13.77-2.02"/>
				<path class="st0" d="M103.7,52.41c0,1.71,0.66,3.34,1.84,4.84c3.8,4.81,13.1,8.21,23.97,8.21c3.68,0,7.17-0.4,10.34-1.1"/>
				<path class="st0" d="M103.7,62.08c0,7.21,11.56,13.05,25.81,13.05c4.27,0,8.3-0.53,11.85-1.46"/>
			</g>
			<circle class="st0" cx="161.7" cy="65.58" r="21.87"/>
			<g>
				<path class="st1" d="M169.14,61.39c0,1.73-0.65,3.11-1.93,4.15c-1.29,1.04-3.04,1.55-5.24,1.55c-0.73,0-1.47-0.05-2.21-0.15
					v7.89h-2.6V56.3h4.81c2.34,0,4.12,0.44,5.34,1.31C168.52,58.49,169.14,59.75,169.14,61.39z M166.39,61.7
					c0-1.56-0.41-2.78-1.22-3.66s-2.01-1.32-3.59-1.32h-1.83v9.8c0.49,0.12,1.09,0.18,1.78,0.18c1.58,0,2.78-0.43,3.61-1.3
					C165.97,64.52,166.39,63.29,166.39,61.7z"/>
			</g>
		</g>
	</g>
	<g>
		<path class="st1" d="M83.09,127.84l0.58-2.46c0.92,1.17,1.76,2.02,2.53,2.53s1.7,0.77,2.78,0.77c1.45,0,2.68-0.5,3.68-1.5
			s1.5-2.33,1.5-3.97c0-1.54-0.49-2.86-1.47-3.97s-2.27-1.8-3.87-2.08l-1.12-0.19l-0.13-0.35l0.86-0.29
			c1.26-0.43,2.34-1.12,3.23-2.08c0.92-0.94,1.38-2.05,1.38-3.33c0-1.13-0.38-2.03-1.14-2.7s-1.74-1.01-2.96-1.01
			c-1.96,0-3.67,0.88-5.12,2.66l-0.42-0.19c2.11-3.03,4.82-4.54,8.13-4.54c1.79,0,3.27,0.44,4.43,1.31
			c1.16,0.88,1.74,2.01,1.74,3.39c0,1.24-0.49,2.35-1.47,3.33c-1.02,1.02-2.2,1.71-3.52,2.05v0.06c1.64,0.26,3.03,0.98,4.16,2.18
			c1.13,1.2,1.7,2.61,1.7,4.26c0,2.15-0.87,3.94-2.61,5.36s-3.96,2.13-6.67,2.13C87.5,129.18,85.44,128.74,83.09,127.84z"/>
		<path class="st1" d="M99.89,111.1c0-1.79,0.51-3.21,1.52-4.24c1.01-1.04,2.36-1.55,4.05-1.55c1.62,0,2.94,0.5,3.95,1.5
			c1.01,1,1.52,2.35,1.52,4.03c0,1.79-0.5,3.21-1.5,4.24c-1,1.04-2.35,1.55-4.03,1.55c-1.64,0-2.97-0.5-3.98-1.49
			C100.39,114.16,99.89,112.81,99.89,111.1z M108.02,111.01c0-1.66-0.23-2.96-0.69-3.9s-1.1-1.41-1.94-1.41s-1.47,0.46-1.92,1.39
			s-0.67,2.21-0.67,3.86c0,1.69,0.22,2.99,0.67,3.92s1.11,1.39,1.98,1.39c0.83,0,1.47-0.46,1.9-1.39
			C107.8,113.94,108.02,112.65,108.02,111.01z M103.95,128.8l14.08-23.3h0.74l-14.08,23.3H103.95z M111.79,123.46
			c0-1.79,0.5-3.21,1.5-4.24s2.35-1.55,4.03-1.55c1.64,0,2.97,0.5,3.98,1.49s1.52,2.34,1.52,4.05c0,1.79-0.51,3.21-1.52,4.24
			c-1.01,1.04-2.36,1.55-4.05,1.55c-1.62,0-2.94-0.5-3.95-1.5C112.3,126.49,111.79,125.14,111.79,123.46z M119.92,123.36
			c0-1.68-0.22-2.99-0.67-3.92s-1.11-1.39-1.98-1.39c-0.83,0-1.47,0.46-1.9,1.39c-0.44,0.93-0.66,2.21-0.66,3.86
			c0,1.66,0.23,2.97,0.69,3.9c0.46,0.94,1.1,1.41,1.94,1.41s1.47-0.46,1.92-1.39C119.7,126.29,119.92,125,119.92,123.36z"/>
		<path class="st1" d="M147.95,112.03c0,2.18-0.81,3.92-2.43,5.22s-3.82,1.95-6.59,1.95c-0.98,0-1.96-0.06-2.94-0.19v9.79h-5.09
			v-23.3h8.03c2.94,0,5.18,0.56,6.72,1.68S147.95,109.92,147.95,112.03z M141.42,117.07c0.81-1.08,1.22-2.63,1.22-4.66
			s-0.4-3.6-1.2-4.72s-1.99-1.68-3.57-1.68h-1.89v12.42c0.55,0.17,1.17,0.26,1.86,0.26C139.42,118.69,140.61,118.15,141.42,117.07z"
			/>
		<path class="st1" d="M147.73,120.29c0-2.69,0.88-4.88,2.64-6.56s3.98-2.53,6.67-2.53c2.64,0,4.82,0.82,6.51,2.45
			c1.7,1.63,2.54,3.78,2.54,6.45s-0.89,4.85-2.66,6.54c-1.77,1.7-3.99,2.54-6.66,2.54c-2.65,0-4.82-0.82-6.51-2.45
			C148.58,125.1,147.73,122.95,147.73,120.29z M161.1,120.32c0-2.67-0.38-4.78-1.14-6.34c-0.76-1.56-1.8-2.34-3.12-2.34
			c-1.34,0-2.37,0.74-3.07,2.22c-0.7,1.48-1.06,3.57-1.06,6.26c0,2.65,0.37,4.74,1.12,6.29s1.78,2.32,3.1,2.32
			c1.34,0,2.37-0.74,3.09-2.22C160.75,125.03,161.1,122.96,161.1,120.32z"/>
		<path class="st1" d="M170.48,109.12l-2.98-2.98l2.98-2.98l2.94,2.98L170.48,109.12z M168.11,128.8v-16.58l4.58-1.12h0.13v17.7
			H168.11z"/>
		<path class="st1" d="M191.82,117.31v11.49h-4.7v-11.94c0-1.05-0.18-2.02-0.54-2.91c-0.34-0.85-1.16-1.28-2.46-1.28
			c-1.26,0-2.5,0.61-3.71,1.82v14.3h-4.7v-16.58l4.58-1.12h0.13v2.78c1.69-1.79,3.62-2.69,5.79-2.69
			C189.95,111.2,191.82,113.24,191.82,117.31z"/>
		<path class="st1" d="M204.66,126.94l0.26,0.38c-1.77,1.24-3.5,1.86-5.18,1.86c-1.86,0-3.08-0.46-3.68-1.38
			c-0.62-0.94-0.93-1.99-0.93-3.17v-12.35h-2.11v-0.54l2.05-0.16l4.64-5.92h0.13v5.92h5.02l-0.42,0.7h-4.61v12.51
			c0,0.75,0.13,1.43,0.38,2.05c0.28,0.6,0.9,0.9,1.86,0.9C202.87,127.74,203.74,127.48,204.66,126.94z"/>
	</g>
</g>
<rect x="-0.5" y="-0.9" class="st2" width="288" height="148.8"/>
</svg>
