<?xml version="1.0" encoding="utf-8"?>
<!-- Generator: Adobe Illustrator 25.2.1, SVG Export Plug-In . SVG Version: 6.00 Build 0)  -->
<svg version="1.1" id="Layer_1" xmlns="http://www.w3.org/2000/svg" xmlns:xlink="http://www.w3.org/1999/xlink" x="0px" y="0px"
	 viewBox="0 0 288 148.8" style="enable-background:new 0 0 288 148.8;" xml:space="preserve">
<style type="text/css">
	.st0{fill:#111111;}
	.st1{fill:#555555;}
	.st2{fill:#FFFFFF;}
	.st3{opacity:0;fill:#FFFFFF;}
</style>
<g>
	<g>
		<g>
			<path class="st0" d="M196,51.64l5.57,18.86c0.38,1.28,1.55,2.15,2.88,2.15h12.56v32.4h-50.75V51.64H196 M198.24,48.64h-34.98
				v59.41h56.75v-38.4h-15.56L198.24,48.64L198.24,48.64z"/>
		</g>
		<polygon class="st1" points="193.23,55.35 176.63,55.35 176.63,69.65 197.45,69.65 		"/>
		<circle class="st1" cx="194.97" cy="108.05" r="15.89"/>
		<circle class="st0" cx="194.97" cy="108.05" r="6.65"/>
		<polygon class="st0" points="169.92,86.7 169.92,24.86 67.99,24.86 67.99,86.7 67.99,108.05 169.92,108.05 		"/>
		<circle class="st1" cx="93.31" cy="108.05" r="15.89"/>
		<circle class="st0" cx="93.31" cy="108.05" r="6.65"/>
	</g>
	<g>
		<path class="st2" d="M92.39,56.13h-0.8v9.51h0.46c3.17,0,5.12-0.34,5.84-1.02h0.06v2.73h-0.06c-0.8-0.8-2.74-1.2-5.84-1.2h-0.46
			v10.19h-4.53V55.62h12.42l0.4,2.62h-0.06C97.52,56.84,95.05,56.13,92.39,56.13z"/>
		<path class="st2" d="M112.46,65.96l5.81,6.09v5.24h-0.23l-9.2-9.85c-0.36-0.36-0.8-0.54-1.31-0.54h-0.91v9.45h-4.53V55.62h6.52
			c5.9,0,8.86,1.72,8.86,5.15C117.48,63.17,115.81,64.9,112.46,65.96z M113.12,61c0-1.56-0.4-2.77-1.2-3.63
			c-0.8-0.86-1.97-1.3-3.53-1.3h-1.77v10.19c0.53,0.11,1.25,0.17,2.16,0.17c1.29,0,2.34-0.52,3.13-1.57
			C112.72,63.83,113.12,62.54,113.12,61z"/>
		<path class="st2" d="M134.65,73.53h0.06l-0.63,2.82h-13.07V55.62h12.79l0.4,2.62h-0.06c-2.3-1.4-4.77-2.11-7.43-2.11h-1.17v9.17
			h0.74c3.17,0,5.12-0.34,5.84-1.02h0.06v2.73h-0.06c-0.8-0.8-2.74-1.2-5.84-1.2h-0.74v10.02h1.31
			C129.73,75.84,132.33,75.07,134.65,73.53z"/>
		<path class="st2" d="M150.79,73.53h0.06l-0.63,2.82h-13.07V55.62h12.78l0.4,2.62h-0.06c-2.3-1.4-4.77-2.11-7.43-2.11h-1.17v9.17
			h0.74c3.17,0,5.12-0.34,5.84-1.02h0.06v2.73h-0.06c-0.8-0.8-2.74-1.2-5.84-1.2h-0.74v10.02h1.31
			C145.87,75.84,148.47,75.07,150.79,73.53z"/>
	</g>
</g>
<rect class="st3" width="288" height="148.8"/>
</svg>
