<?xml version="1.0" encoding="utf-8"?>
<!-- Generator: Adobe Illustrator 25.0.0, SVG Export Plug-In . SVG Version: 6.00 Build 0)  -->
<svg version="1.1" id="Layer_1" xmlns="http://www.w3.org/2000/svg" xmlns:xlink="http://www.w3.org/1999/xlink" x="0px" y="0px"
	 viewBox="0 0 230 120" style="enable-background:new 0 0 230 120;" xml:space="preserve">
<style type="text/css">
	.st0{fill:#111111;}
	.st1{fill:#FFFFFF;}
</style>
<path class="st0" d="M230,108v-4.5c-0.83,0-1.5-0.67-1.5-1.5s0.67-1.5,1.5-1.5v-3c-0.83,0-1.5-0.67-1.5-1.5s0.67-1.5,1.5-1.5v-3
	c-0.83,0-1.5-0.67-1.5-1.5s0.67-1.5,1.5-1.5v-3c-0.83,0-1.5-0.67-1.5-1.5s0.67-1.5,1.5-1.5v-3c-0.83,0-1.5-0.67-1.5-1.5
	s0.67-1.5,1.5-1.5v-3c-0.83,0-1.5-0.67-1.5-1.5s0.67-1.5,1.5-1.5v-3c-0.83,0-1.5-0.67-1.5-1.5s0.67-1.5,1.5-1.5v-3
	c-0.83,0-1.5-0.67-1.5-1.5s0.67-1.5,1.5-1.5v-3c-0.83,0-1.5-0.67-1.5-1.5s0.67-1.5,1.5-1.5v-3c-0.83,0-1.5-0.67-1.5-1.5
	s0.67-1.5,1.5-1.5v-3c-0.83,0-1.5-0.67-1.5-1.5s0.67-1.5,1.5-1.5v-3c-0.83,0-1.5-0.67-1.5-1.5s0.67-1.5,1.5-1.5v-3
	c-0.83,0-1.5-0.67-1.5-1.5s0.67-1.5,1.5-1.5v-3c-0.83,0-1.5-0.67-1.5-1.5s0.67-1.5,1.5-1.5v-3c-0.83,0-1.5-0.67-1.5-1.5
	s0.67-1.5,1.5-1.5V12c-6.63,0-12-5.37-12-12H12c0,6.63-5.37,12-12,12v4.5c0.83,0,1.5,0.67,1.5,1.5S0.83,19.5,0,19.5v3
	c0.83,0,1.5,0.67,1.5,1.5S0.83,25.5,0,25.5v3c0.83,0,1.5,0.67,1.5,1.5S0.83,31.5,0,31.5v3c0.83,0,1.5,0.67,1.5,1.5S0.83,37.5,0,37.5
	v3c0.83,0,1.5,0.67,1.5,1.5S0.83,43.5,0,43.5v3c0.83,0,1.5,0.67,1.5,1.5S0.83,49.5,0,49.5v3c0.83,0,1.5,0.67,1.5,1.5
	S0.83,55.5,0,55.5v3c0.83,0,1.5,0.67,1.5,1.5S0.83,61.5,0,61.5v3c0.83,0,1.5,0.67,1.5,1.5S0.83,67.5,0,67.5v3
	c0.83,0,1.5,0.67,1.5,1.5S0.83,73.5,0,73.5v3c0.83,0,1.5,0.67,1.5,1.5S0.83,79.5,0,79.5v3c0.83,0,1.5,0.67,1.5,1.5S0.83,85.5,0,85.5
	v3c0.83,0,1.5,0.67,1.5,1.5S0.83,91.5,0,91.5v3c0.83,0,1.5,0.67,1.5,1.5S0.83,97.5,0,97.5v3c0.83,0,1.5,0.67,1.5,1.5
	s-0.67,1.5-1.5,1.5v4.5c6.63,0,12,5.37,12,12h206C218,113.37,223.37,108,230,108z"/>
<g>
	<path class="st1" d="M40.5,44.32h0.14v25.9h-4.94V49.25c-0.91,0.4-2.02,0.73-3.32,1.01v-0.42c1.33-0.4,2.74-1.1,4.23-2.1
		C38.13,46.72,39.43,45.58,40.5,44.32z"/>
	<path class="st1" d="M44.56,75.29l-0.18-0.25c1.54-0.91,2.31-2.09,2.31-3.54c0-0.7-0.27-1.41-0.81-2.13s-1.24-1.32-2.1-1.79
		l2.2-3.12c1.21,0.33,2.19,0.92,2.92,1.79c0.73,0.86,1.1,1.85,1.1,2.98c0,1.33-0.54,2.5-1.61,3.5
		C47.34,73.79,46.06,74.64,44.56,75.29z"/>
	<path class="st1" d="M51.6,57.76c0-4.27,0.95-7.58,2.85-9.92c1.9-2.35,4.51-3.52,7.82-3.52c3.2,0,5.78,1.13,7.75,3.4
		c1.97,2.26,2.96,5.42,2.96,9.48c0,4.22-0.96,7.52-2.89,9.89c-1.93,2.37-4.54,3.55-7.86,3.55c-3.15,0-5.71-1.13-7.68-3.4
		C52.58,64.98,51.6,61.82,51.6,57.76z M67.38,57.62c0-3.99-0.43-7.1-1.3-9.34c-0.86-2.31-2.16-3.47-3.88-3.47
		c-1.66,0-2.91,1.1-3.75,3.29c-0.84,2.19-1.26,5.26-1.26,9.21c0,3.99,0.43,7.13,1.29,9.42c0.89,2.29,2.18,3.43,3.88,3.43
		s2.96-1.12,3.78-3.36C66.98,64.53,67.38,61.47,67.38,57.62z"/>
	<path class="st1" d="M75.85,57.76c0-4.27,0.95-7.58,2.85-9.92c1.9-2.35,4.51-3.52,7.82-3.52c3.2,0,5.78,1.13,7.75,3.4
		s2.96,5.42,2.96,9.48c0,4.22-0.96,7.52-2.89,9.89c-1.92,2.37-4.54,3.55-7.86,3.55c-3.15,0-5.71-1.13-7.68-3.4
		C76.84,64.98,75.85,61.82,75.85,57.76z M91.64,57.62c0-3.99-0.43-7.1-1.29-9.34c-0.86-2.31-2.16-3.47-3.88-3.47
		c-1.66,0-2.91,1.1-3.75,3.29c-0.84,2.19-1.26,5.26-1.26,9.21c0,3.99,0.43,7.13,1.29,9.42c0.89,2.29,2.18,3.43,3.88,3.43
		s2.96-1.12,3.78-3.36C91.23,64.53,91.64,61.47,91.64,57.62z"/>
	<path class="st1" d="M100.11,57.76c0-4.27,0.95-7.58,2.85-9.92c1.9-2.35,4.51-3.52,7.82-3.52c3.2,0,5.78,1.13,7.75,3.4
		s2.96,5.42,2.96,9.48c0,4.22-0.96,7.52-2.89,9.89c-1.92,2.37-4.54,3.55-7.86,3.55c-3.15,0-5.71-1.13-7.68-3.4
		C101.09,64.98,100.11,61.82,100.11,57.76z M115.89,57.62c0-3.99-0.43-7.1-1.29-9.34c-0.86-2.31-2.16-3.47-3.88-3.47
		c-1.66,0-2.91,1.1-3.75,3.29c-0.84,2.19-1.26,5.26-1.26,9.21c0,3.99,0.43,7.13,1.29,9.42c0.89,2.29,2.18,3.43,3.88,3.43
		s2.96-1.12,3.78-3.36C115.48,64.53,115.89,61.47,115.89,57.62z"/>
	<path class="st1" d="M153.45,51.39H156c-0.7,1.4-1.4,2.87-2.1,4.41c-0.96,2.19-1.88,4.36-2.76,6.51l-3.57,8.61h-0.17l-4.83-12.15
		l-5,12.15h-0.17l-8.16-19.53h5.53l5.11,12.32l5-12.32h0.18l4.86,12.21l0.63-1.5C152.34,57.69,153.31,54.12,153.45,51.39z"/>
	<path class="st1" d="M155.79,60.91c0-2.94,0.96-5.33,2.89-7.17c1.93-1.84,4.36-2.77,7.3-2.77c2.89,0,5.27,0.89,7.12,2.68
		c1.86,1.78,2.78,4.14,2.78,7.05c0,2.92-0.97,5.3-2.91,7.16c-1.94,1.86-4.36,2.78-7.28,2.78c-2.89,0-5.27-0.89-7.12-2.68
		C156.72,66.18,155.79,63.83,155.79,60.91z M170.42,60.94c0-2.92-0.42-5.23-1.24-6.93c-0.83-1.7-1.97-2.55-3.41-2.55
		c-1.47,0-2.59,0.81-3.36,2.43c-0.77,1.62-1.15,3.9-1.15,6.84c0,2.89,0.41,5.19,1.22,6.88c0.82,1.69,1.95,2.54,3.39,2.54
		c1.47,0,2.6-0.81,3.38-2.43C170.03,66.1,170.42,63.84,170.42,60.94z"/>
	<path class="st1" d="M196.39,57.65v12.56h-5.15V57.16c0-1.14-0.2-2.2-0.59-3.19c-0.37-0.93-1.27-1.4-2.7-1.4
		c-1.38,0-2.73,0.67-4.06,2v15.65h-5.15V52.09l5-1.23h0.14v3.04c1.84-1.96,3.96-2.94,6.33-2.94
		C194.34,50.97,196.39,53.2,196.39,57.65z"/>
</g>
</svg>
